<?xml version="1.0" standalone="no"?>
<!DOCTYPE svg PUBLIC "-//W3C//DTD SVG 20010904//EN"
 "http://www.w3.org/TR/2001/REC-SVG-20010904/DTD/svg10.dtd">
<svg version="1.0" xmlns="http://www.w3.org/2000/svg"
 width="310.000000pt" height="230.000000pt" viewBox="0 0 310.000000 230.000000"
 preserveAspectRatio="xMidYMid meet">

<g transform="translate(0.000000,230.000000) scale(0.100000,-0.100000)"
fill="#FFFFFF" stroke="none">
<path d="M1689 2177 c-25 -7 -65 -27 -88 -44 l-42 -31 -50 34 c-59 40 -95 47
-191 42 -88 -4 -148 -32 -221 -100 l-51 -47 -44 11 c-63 16 -172 4 -237 -26
-69 -31 -158 -115 -197 -183 -22 -39 -36 -53 -52 -53 -43 0 -112 -31 -168 -74
-74 -58 -128 -161 -128 -242 0 -51 -2 -56 -39 -82 -103 -72 -164 -211 -165
-373 -1 -88 2 -101 30 -155 27 -54 29 -62 18 -89 -7 -17 -13 -60 -14 -97 0
-56 5 -75 33 -127 35 -66 147 -197 181 -212 11 -5 48 -29 81 -54 118 -90 163
-99 423 -91 109 4 230 9 270 12 l72 6 61 -46 c66 -50 78 -53 112 -31 17 11 31
12 67 4 68 -16 126 -6 160 26 l29 28 31 -26 c37 -31 83 -42 156 -34 59 6 156
46 191 79 20 19 27 20 95 10 40 -6 98 -16 128 -21 71 -14 389 -15 460 -1 92
17 176 65 260 149 164 162 222 311 164 423 -12 24 -11 32 16 90 76 164 32 393
-100 511 -44 40 -47 46 -52 104 -8 80 -45 160 -100 214 -47 45 -148 99 -188
99 -21 0 -29 10 -48 54 -59 137 -230 238 -374 222 -33 -4 -69 -12 -81 -17 -19
-8 -30 -3 -75 40 -100 94 -221 129 -333 98z m156 -144 c62 -31 135 -122 135
-167 0 -13 19 -9 98 20 140 51 206 40 300 -50 48 -45 68 -78 86 -140 l12 -41
72 -12 c132 -22 191 -94 192 -234 l0 -76 53 -36 c103 -72 150 -186 127 -314
-12 -73 -28 -110 -71 -164 -39 -50 -39 -91 1 -119 17 -12 30 -25 30 -30 0 -5
-105 -11 -235 -12 l-234 -3 -6 25 c-10 40 -53 88 -98 111 -33 17 -52 20 -100
16 -35 -3 -66 -12 -78 -23 -18 -16 -21 -14 -81 48 -35 36 -71 70 -82 75 -18
10 -18 12 -3 54 9 24 18 55 19 69 l3 25 184 5 184 5 22 -35 c66 -103 156 -135
250 -90 65 31 115 116 115 194 0 47 -46 132 -83 155 -53 33 -117 44 -168 31
-49 -13 -115 -74 -125 -116 -6 -23 -11 -25 -37 -20 -16 3 -96 6 -178 6 -165 0
-160 -2 -174 72 -7 35 -5 38 36 65 23 15 58 43 76 62 33 33 34 33 79 21 95
-27 188 12 225 94 26 57 23 111 -9 176 -35 70 -80 95 -172 95 -56 0 -70 -4
-103 -29 -53 -40 -67 -73 -67 -152 l0 -67 -65 -65 -65 -64 -50 50 c-48 49
-174 122 -210 122 -15 0 -19 15 -25 115 -4 63 -4 157 0 209 8 106 20 126 92
152 41 14 80 10 128 -13z m-398 -9 c34 -26 40 -69 42 -291 l1 -151 -32 -8
c-62 -13 -141 -58 -199 -112 l-59 -54 -67 56 -68 57 0 74 c0 59 -4 79 -21 102
-94 126 -284 103 -340 -43 -32 -83 -6 -161 73 -222 29 -21 47 -27 87 -27 28 1
65 4 81 9 27 7 36 2 85 -41 31 -26 66 -55 79 -63 22 -15 23 -18 11 -55 -7 -22
-14 -46 -16 -53 -3 -10 -43 -13 -185 -11 l-181 3 -23 37 c-63 99 -181 127
-274 66 -54 -36 -81 -96 -81 -179 0 -74 18 -110 82 -161 85 -69 229 -31 284
74 l15 29 183 0 184 0 12 -50 c6 -27 18 -54 26 -61 13 -10 3 -24 -62 -86 -67
-65 -80 -74 -103 -68 -14 3 -54 9 -88 12 -55 5 -68 2 -108 -21 -32 -19 -55
-43 -77 -82 -20 -36 -35 -53 -44 -50 -13 5 -387 10 -409 6 -23 -5 -45 1 -45
11 0 6 13 23 30 37 37 33 38 49 1 99 -59 82 -74 123 -79 213 -3 70 0 95 18
142 24 64 88 129 146 148 l35 12 -7 68 c-8 83 5 128 54 182 45 50 77 66 147
74 l56 7 30 59 c41 81 99 142 172 178 70 35 116 38 185 11 26 -11 68 -21 92
-22 43 -3 44 -3 51 30 8 40 58 93 113 121 54 28 152 24 193 -6z m-512 -379
c30 -29 31 -50 5 -93 -23 -38 -40 -47 -75 -38 -24 6 -65 58 -65 82 0 20 62 74
87 74 13 0 35 -11 48 -25z m1340 0 c14 -13 25 -36 25 -50 0 -32 -50 -85 -80
-85 -29 0 -80 53 -80 83 0 69 85 102 135 52z m-620 -226 c64 -30 136 -98 170
-161 26 -46 30 -63 29 -128 -1 -282 -315 -413 -517 -216 -61 59 -90 123 -95
215 -7 127 47 214 170 276 87 43 170 48 243 14z m-1040 -241 c14 -16 25 -33
25 -38 0 -20 -20 -60 -41 -79 -68 -63 -170 43 -111 115 40 49 87 50 127 2z
m1976 13 c39 -39 40 -92 3 -126 -37 -35 -76 -32 -108 6 -35 41 -34 83 3 120
37 37 65 37 102 0z m-1330 -397 c35 -37 82 -64 157 -89 l67 -23 0 -203 0 -204
-55 -6 c-132 -16 -218 18 -223 86 -1 17 -6 33 -12 37 -18 14 -62 8 -86 -10
-57 -44 -171 -61 -384 -57 -189 4 -234 13 -318 66 -56 36 -147 116 -147 130 0
5 100 9 222 9 l221 0 42 -43 c74 -77 178 -85 262 -21 48 37 67 79 69 157 l1
68 64 55 c35 30 66 59 67 65 6 16 28 10 53 -17z m737 -90 c22 -28 26 -43 27
-101 l0 -68 49 -45 c58 -54 69 -60 115 -71 60 -14 119 8 173 63 l47 48 217 0
218 0 -35 -36 c-45 -48 -145 -119 -205 -146 -45 -21 -64 -23 -234 -23 -204 0
-257 9 -354 57 -64 32 -182 52 -158 27 6 -7 12 -24 12 -37 0 -65 -63 -102
-175 -102 l-75 0 0 210 0 210 22 0 c31 0 180 75 208 105 l23 24 49 -41 c28
-23 62 -56 76 -74z m-1095 -3 c39 -15 57 -40 57 -79 0 -77 -76 -108 -131 -53
-37 38 -38 76 -2 113 29 30 39 33 76 19z m1365 -17 c69 -48 35 -145 -51 -144
-27 1 -48 16 -71 52 -21 32 -15 60 21 88 31 24 70 26 101 4z"/>
<path d="M1495 1308 c-51 -18 -104 -77 -121 -136 -18 -62 -15 -81 24 -143 33
-51 99 -89 154 -89 89 1 167 76 176 169 13 143 -104 244 -233 199z m98 -125
c45 -51 17 -123 -48 -123 -28 0 -37 6 -50 30 -20 38 -19 52 6 84 24 31 68 35
92 9z"/>
</g>
</svg>