<?xml version="1.0" standalone="no"?>
<!DOCTYPE svg PUBLIC "-//W3C//DTD SVG 20010904//EN"
 "http://www.w3.org/TR/2001/REC-SVG-20010904/DTD/svg10.dtd">
<svg version="1.0" xmlns="http://www.w3.org/2000/svg"
 width="500.000000pt" height="500.000000pt" viewBox="0 0 100.000000 100.000000"
 preserveAspectRatio="xMidYMid meet">

<g transform="translate(0.000000,500.000000) scale(0.100000,-0.100000)"
fill="#000000" stroke="none">
<path d="M2564 2999 c-17 -5 -37 -16 -44 -24 -12 -14 -15 -14 -31 1 -21 18
-103 30 -143 20 -13 -3 -39 -18 -57 -33 -27 -23 -42 -28 -88 -28 -72 0 -126
-27 -164 -81 -17 -24 -41 -45 -56 -49 -69 -17 -131 -91 -131 -157 0 -17 -9
-32 -26 -43 -54 -35 -85 -160 -59 -234 9 -27 13 -58 9 -81 -10 -60 11 -104 79
-166 34 -31 78 -64 97 -74 50 -25 139 -32 236 -19 80 10 86 10 122 -11 44 -27
146 -29 173 -4 14 13 18 13 29 -1 19 -23 89 -19 145 10 44 22 54 23 94 13 25
-6 96 -11 156 -11 100 0 115 2 162 26 101 52 181 178 155 246 -5 16 -4 37 4
60 30 82 6 204 -47 243 -20 15 -29 31 -29 49 0 35 -23 90 -47 111 -10 10 -40
27 -66 38 -26 12 -47 25 -47 30 0 18 -54 72 -93 92 -32 16 -52 19 -93 15 -44
-5 -55 -2 -71 15 -39 43 -114 64 -169 47z m-113 -69 c17 -10 19 -22 19 -115 0
-104 0 -105 -26 -111 -14 -4 -46 -22 -70 -40 -24 -19 -47 -34 -51 -34 -4 0
-20 12 -35 27 -19 18 -28 37 -28 59 0 47 -9 63 -42 80 -45 23 -94 11 -118 -29
-23 -37 -25 -56 -8 -92 16 -35 60 -57 101 -50 26 5 38 0 69 -27 31 -28 35 -37
28 -55 -9 -21 -15 -23 -96 -23 -85 0 -88 1 -113 30 -59 70 -148 40 -158 -52
-5 -42 -3 -50 25 -78 18 -18 41 -30 57 -30 36 0 82 26 90 50 6 18 15 20 96 20
l89 0 14 -32 c13 -32 12 -34 -20 -67 -30 -32 -37 -34 -88 -32 -51 2 -56 0 -83
-34 l-28 -35 -112 0 c-103 0 -132 7 -103 25 16 10 12 32 -15 71 -49 72 -26
182 45 219 26 13 31 21 26 40 -14 54 35 120 95 130 23 4 39 12 39 21 0 23 59
81 100 98 27 11 47 13 67 7 68 -22 83 -22 83 -2 0 30 56 71 96 71 20 0 44 -5
55 -10z m211 -10 c14 -10 31 -33 38 -49 l12 -30 50 20 c41 16 56 18 83 9 40
-13 90 -60 100 -92 9 -28 23 -38 53 -38 13 0 37 -13 53 -29 23 -23 29 -38 29
-71 0 -37 5 -47 42 -79 40 -36 42 -41 46 -102 3 -56 1 -69 -22 -102 -30 -44
-32 -54 -9 -79 15 -17 12 -18 -101 -18 -113 0 -117 1 -127 24 -16 35 -51 50
-101 43 -41 -6 -46 -3 -79 31 -35 36 -35 38 -22 70 l13 32 84 0 c82 0 85 -1
106 -30 22 -31 72 -47 110 -35 27 9 60 61 60 96 0 32 -34 77 -68 90 -35 14
-89 -6 -106 -39 -14 -27 -15 -27 -104 -24 -87 3 -90 4 -95 28 -7 38 52 79 114
79 80 0 120 65 84 134 -28 55 -86 66 -134 25 -24 -20 -31 -34 -31 -62 0 -27
-8 -44 -32 -69 l-31 -32 -35 31 c-20 17 -50 37 -69 44 l-33 14 0 102 c0 84 3
103 18 114 25 20 76 17 104 -6z m-452 -197 c0 -29 -30 -54 -51 -42 -23 12 -25
42 -3 63 19 19 54 5 54 -21z m644 18 c19 -20 13 -47 -14 -61 -33 -18 -65 41
-38 68 17 17 32 15 52 -7z m-288 -117 c42 -20 84 -88 84 -135 0 -144 -185
-202 -270 -86 -35 47 -40 132 -9 171 50 64 125 83 195 50z m455 -116 c8 -14 6
-25 -6 -44 -19 -29 -29 -30 -55 -4 -25 25 -25 35 0 60 22 22 45 18 61 -12z
m-975 7 c9 -22 -4 -62 -21 -69 -37 -14 -71 38 -45 69 16 19 59 19 66 0z m327
-199 c18 -13 46 -28 62 -33 l30 -10 3 -101 3 -102 -55 0 c-56 0 -86 16 -86 46
0 18 -18 18 -63 -1 -54 -22 -261 -20 -303 3 -34 19 -94 67 -94 76 0 3 48 6
106 6 99 0 108 -2 136 -25 42 -35 91 -34 129 4 20 21 29 39 29 62 0 24 9 43
32 66 18 18 34 33 36 33 2 0 18 -11 35 -24z m322 -7 c28 -25 35 -38 35 -68 0
-81 118 -128 165 -67 7 10 45 15 124 18 l113 3 -38 -33 c-69 -60 -89 -67 -199
-66 -86 0 -109 4 -162 27 -75 32 -86 33 -78 8 10 -33 -27 -61 -79 -61 l-45 0
2 102 2 101 30 10 c17 5 44 20 60 33 17 13 31 23 32 24 1 0 18 -14 38 -31z
m-502 -33 c22 -17 22 -62 1 -70 -45 -17 -80 30 -48 65 20 22 23 23 47 5z m671
-18 c26 -42 -39 -77 -68 -37 -14 21 -14 24 1 41 20 22 52 20 67 -4z"/>
<path d="M2439 2551 c-37 -37 -38 -79 -3 -120 20 -25 34 -31 64 -31 30 0 44 6
64 31 29 35 33 67 11 108 -26 52 -91 57 -136 12z m75 -27 c31 -12 13 -74 -21
-74 -7 0 -17 9 -23 21 -9 16 -8 25 6 40 20 22 17 21 38 13z"/>
</g>
</svg>
